<?xml version="1.0" encoding="UTF-8"?>
 <svg
          width='300pt'
          height='300pt'
          version='1.1'
          fill='rgba(148,168,184, .5)'
          viewBox='0 0 1200 1200'
          xmlns='http://www.w3.org/2000/svg'
        >
 <g>
  <path d="m600 1127.3v28.5c-299.05 0-541.5-242.45-541.5-541.5h28.5c0 283.3 229.68 513 513 513z"/>
  <path d="m542.48 1066.6v28.727c-240.48-28.465-426.98-232.99-426.98-481.11h28.5c0 232.36 173.8 424.12 398.48 452.39z"/>
  <path d="m494.75 999.23v29.484c-185.2-46.883-322.25-214.67-322.25-414.46h28.5c0 183.94 124.46 338.77 293.75 384.97z"/>
  <path d="m459.13 925.96v31.055c-134.79-55.43-229.63-188-229.63-342.77h28.5c0 138.69 82.535 258.07 201.13 311.71z"/>
  <path d="m528.76 614.26h42.758c0 15.73 12.77 28.5 28.5 28.5v42.758c-17.902 0-34.262-6.6133-46.766-17.496-15.016-13.07-24.492-32.309-24.492-53.762z"/>
  <path d="m1170 614.26c0 157.4-63.77 299.9-166.96 403.04l-20.148-20.148c97.992-98.004 158.61-233.38 158.61-382.89 0-299.05-242.45-541.5-541.5-541.5s-541.5 242.45-541.5 541.5h-28.5c0-314.81 255.19-570 570-570s570 255.18 570 570z"/>
  <path d="m1113 614.26c0 141.65-57.434 269.89-150.25 362.75l-20.148-20.148c87.66-87.684 141.9-208.81 141.9-342.59 0-267.59-216.91-484.5-484.5-484.5s-484.5 216.91-484.5 484.5l-28.496 0.003906c0-283.32 229.68-513 513-513 283.31-0.011719 513 229.67 513 512.99z"/>
  <path d="m1056 614.26c0 125.91-51.035 239.91-133.56 322.44l-20.172-20.172c77.375-77.352 125.23-184.22 125.23-302.27 0-236.1-191.41-427.5-427.5-427.5-236.1 0-427.5 191.4-427.5 427.5h-28.5c0-251.86 204.14-456 456-456 251.84 0 456 204.14 456 456z"/>
  <path d="m999 614.26c0 110.18-44.664 209.93-116.84 282.16l-20.184-20.184c67.066-67.031 108.53-159.66 108.53-261.97 0-204.62-165.86-370.5-370.5-370.5-204.62 0-370.5 165.88-370.5 370.5h-28.5c0-220.36 178.64-399 399-399 220.37 0 399 178.63 399 399z"/>
  <path d="m942 614.26c0 94.441-38.27 179.94-100.15 241.85l-191.47-191.46c12.887-12.887 20.867-30.719 20.867-50.387 0-39.359-31.883-71.258-71.258-71.258-39.371 0-71.258 31.883-71.258 71.258h-270.73c0-188.87 153.13-342 342-342 188.89 0 342 153.12 342 342z"/>
  <path d="m614.26 614.26c0 7.8711-6.3828 14.254-14.258 14.254s-14.258-6.3828-14.258-14.254c0-7.875 6.3828-14.258 14.258-14.258s14.258 6.3828 14.258 14.258"/>
 </g>
</svg>
